<?xml version="1.0" encoding="UTF-8"?>
<svg xmlns="http://www.w3.org/2000/svg" version="1.1" width="560" height="560" viewBox="0 0 560 560"><rect x="0" y="0" width="560" height="560" fill="#fefefe"/><g transform="scale(15.135)"><g transform="translate(4,4)"><path fill-rule="evenodd" d="M9 0L9 1L11 1L11 2L9 2L9 3L8 3L8 5L9 5L9 6L8 6L8 7L9 7L9 9L8 9L8 8L5 8L5 9L2 9L2 8L0 8L0 9L2 9L2 10L0 10L0 12L1 12L1 11L3 11L3 12L2 12L2 13L1 13L1 15L0 15L0 16L1 16L1 15L3 15L3 16L2 16L2 17L0 17L0 21L1 21L1 19L2 19L2 21L4 21L4 20L5 20L5 21L7 21L7 20L5 20L5 18L2 18L2 17L5 17L5 16L6 16L6 17L7 17L7 18L6 18L6 19L8 19L8 20L9 20L9 21L8 21L8 24L9 24L9 23L10 23L10 25L9 25L9 26L10 26L10 27L11 27L11 29L12 29L12 27L13 27L13 26L10 26L10 25L14 25L14 23L16 23L16 24L15 24L15 28L16 28L16 29L19 29L19 28L20 28L20 27L21 27L21 25L23 25L23 26L22 26L22 28L23 28L23 26L24 26L24 27L26 27L26 28L24 28L24 29L27 29L27 27L28 27L28 28L29 28L29 27L28 27L28 26L29 26L29 23L27 23L27 22L26 22L26 21L29 21L29 20L26 20L26 21L25 21L25 19L22 19L22 20L19 20L19 22L16 22L16 21L18 21L18 20L17 20L17 19L18 19L18 18L19 18L19 19L21 19L21 18L20 18L20 17L22 17L22 18L23 18L23 17L22 17L22 16L24 16L24 15L22 15L22 14L23 14L23 10L22 10L22 12L21 12L21 15L20 15L20 17L18 17L18 16L19 16L19 15L18 15L18 16L17 16L17 17L16 17L16 16L15 16L15 15L17 15L17 14L20 14L20 12L19 12L19 11L18 11L18 12L19 12L19 13L17 13L17 11L16 11L16 9L17 9L17 10L21 10L21 8L20 8L20 9L18 9L18 8L17 8L17 6L16 6L16 8L15 8L15 5L14 5L14 8L13 8L13 6L12 6L12 9L14 9L14 12L13 12L13 13L12 13L12 14L13 14L13 15L12 15L12 17L13 17L13 16L14 16L14 17L15 17L15 18L12 18L12 19L11 19L11 18L10 18L10 20L9 20L9 18L8 18L8 17L11 17L11 12L12 12L12 11L13 11L13 10L11 10L11 8L10 8L10 7L11 7L11 4L12 4L12 5L13 5L13 4L14 4L14 3L15 3L15 4L16 4L16 3L17 3L17 4L18 4L18 7L19 7L19 5L20 5L20 4L21 4L21 1L20 1L20 2L19 2L19 4L18 4L18 3L17 3L17 2L18 2L18 1L19 1L19 0L17 0L17 1L16 1L16 2L15 2L15 0L13 0L13 1L12 1L12 0ZM13 1L13 2L12 2L12 4L13 4L13 3L14 3L14 1ZM9 3L9 5L10 5L10 3ZM9 6L9 7L10 7L10 6ZM20 6L20 7L21 7L21 6ZM24 8L24 12L25 12L25 9L26 9L26 10L28 10L28 9L26 9L26 8ZM6 9L6 10L4 10L4 12L3 12L3 13L2 13L2 14L3 14L3 13L4 13L4 12L5 12L5 14L7 14L7 13L6 13L6 12L10 12L10 11L11 11L11 10L10 10L10 9L9 9L9 10L10 10L10 11L6 11L6 10L8 10L8 9ZM15 12L15 13L14 13L14 14L15 14L15 13L16 13L16 12ZM28 12L28 13L26 13L26 17L24 17L24 18L28 18L28 19L29 19L29 17L27 17L27 14L29 14L29 12ZM9 13L9 14L8 14L8 15L6 15L6 16L7 16L7 17L8 17L8 16L9 16L9 15L10 15L10 13ZM24 13L24 14L25 14L25 13ZM4 15L4 16L5 16L5 15ZM21 15L21 16L22 16L22 15ZM28 15L28 16L29 16L29 15ZM17 17L17 18L18 18L18 17ZM12 19L12 21L10 21L10 22L11 22L11 24L12 24L12 23L13 23L13 22L12 22L12 21L14 21L14 22L15 22L15 20L14 20L14 19ZM21 21L21 24L24 24L24 21ZM22 22L22 23L23 23L23 22ZM17 23L17 25L18 25L18 26L17 26L17 27L16 27L16 28L19 28L19 27L20 27L20 25L19 25L19 24L20 24L20 23L19 23L19 24L18 24L18 23ZM25 23L25 25L24 25L24 26L26 26L26 27L27 27L27 26L28 26L28 24L27 24L27 23ZM18 26L18 27L19 27L19 26ZM8 27L8 29L10 29L10 28L9 28L9 27ZM0 0L0 7L7 7L7 0ZM1 1L1 6L6 6L6 1ZM2 2L2 5L5 5L5 2ZM22 0L22 7L29 7L29 0ZM23 1L23 6L28 6L28 1ZM24 2L24 5L27 5L27 2ZM0 22L0 29L7 29L7 22ZM1 23L1 28L6 28L6 23ZM2 24L2 27L5 27L5 24Z" fill="#000000"/></g></g></svg>
